<?xml version="1.0" encoding="UTF-8" standalone="no"?>
<!-- Created with Inkscape (http://www.inkscape.org/) -->

<svg
   xmlns:dc="http://purl.org/dc/elements/1.1/"
   xmlns:cc="http://creativecommons.org/ns#"
   xmlns:rdf="http://www.w3.org/1999/02/22-rdf-syntax-ns#"
   xmlns:svg="http://www.w3.org/2000/svg"
   xmlns="http://www.w3.org/2000/svg"
   xmlns:sodipodi="http://sodipodi.sourceforge.net/DTD/sodipodi-0.dtd"
   xmlns:inkscape="http://www.inkscape.org/namespaces/inkscape"
   width="800"
   height="200"
   viewBox="0 0 211.66666 52.916667"
   version="1.1"
   id="svg8"
   inkscape:version="0.92.0 r"
   sodipodi:docname="logo.svg"
   inkscape:export-filename="/home/martino/git/Planetary-Ballistics/logopng.png"
   inkscape:export-xdpi="96"
   inkscape:export-ydpi="96">
  <defs
     id="defs2">
    <marker
       inkscape:stockid="SquareS"
       orient="auto"
       refY="0.0"
       refX="0.0"
       id="marker5896"
       style="overflow:visible"
       inkscape:isstock="true">
      <path
         id="path5894"
         d="M -5.0,-5.0 L -5.0,5.0 L 5.0,5.0 L 5.0,-5.0 L -5.0,-5.0 z "
         style="fill-rule:evenodd;stroke:#ffffff;stroke-width:1pt;stroke-opacity:1;fill:#ffffff;fill-opacity:1"
         transform="scale(0.2)" />
    </marker>
  </defs>
  <sodipodi:namedview
     id="base"
     pagecolor="#ffffff"
     bordercolor="#666666"
     borderopacity="1.0"
     inkscape:pageopacity="0.0"
     inkscape:pageshadow="2"
     inkscape:zoom="1.0933638"
     inkscape:cx="471.14672"
     inkscape:cy="185.85633"
     inkscape:document-units="px"
     inkscape:current-layer="layer1"
     showgrid="false"
     units="px"
     inkscape:window-width="1920"
     inkscape:window-height="1029"
     inkscape:window-x="0"
     inkscape:window-y="25"
     inkscape:window-maximized="1" />
  <metadata
     id="metadata5">
    <rdf:RDF>
      <cc:Work
         rdf:about="">
        <dc:format>image/svg+xml</dc:format>
        <dc:type
           rdf:resource="http://purl.org/dc/dcmitype/StillImage" />
        <dc:title></dc:title>
      </cc:Work>
    </rdf:RDF>
  </metadata>
  <g
     inkscape:label="Livello 1"
     inkscape:groupmode="layer"
     id="layer1"
     transform="translate(2.9802322e-8,-244.0833)">
    <rect
       style="opacity:1;fill:#000000;fill-opacity:1;stroke:#000000;stroke-width:0.52136624;stroke-linecap:round;stroke-linejoin:round;stroke-miterlimit:4;stroke-dasharray:none;stroke-dashoffset:0;stroke-opacity:1"
       id="rect4485"
       width="211.14531"
       height="52.395298"
       x="0.26067725"
       y="-296.73929"
       transform="scale(1,-1)" />
    <g
       id="g7735"
       transform="translate(-4.7046077)">
      <text
         id="text4534"
         y="274.0694"
         x="23.957031"
         style="font-style:normal;font-variant:normal;font-weight:normal;font-stretch:normal;font-size:10.58333302px;line-height:6.61458302px;font-family:'White Rabbit';-inkscape-font-specification:'White Rabbit';letter-spacing:0px;word-spacing:0px;fill:#ffffff;fill-opacity:1;stroke:none;stroke-width:0.26458332px;stroke-linecap:butt;stroke-linejoin:miter;stroke-opacity:1"
         xml:space="preserve"><tspan
           style="font-style:normal;font-variant:normal;font-weight:normal;font-stretch:normal;font-family:'White Rabbit';-inkscape-font-specification:'White Rabbit';fill:#ffffff;stroke-width:0.26458332px"
           y="274.0694"
           x="23.957031"
           id="tspan4532"
           sodipodi:role="line">Orbital Ballistics</tspan></text>
      <g
         transform="translate(-4.7447355,2.1175342)"
         id="g7714">
        <g
           id="g7658"
           style="fill:#00ff00;stroke:none"
           transform="matrix(1.4887159,0,0,1.4887159,-93.822362,-132.9663)">
          <path
             style="color:#000000;font-style:normal;font-variant:normal;font-weight:normal;font-stretch:normal;font-size:medium;line-height:normal;font-family:sans-serif;font-variant-ligatures:normal;font-variant-position:normal;font-variant-caps:normal;font-variant-numeric:normal;font-variant-alternates:normal;font-feature-settings:normal;text-indent:0;text-align:start;text-decoration:none;text-decoration-line:none;text-decoration-style:solid;text-decoration-color:#000000;letter-spacing:normal;word-spacing:normal;text-transform:none;writing-mode:lr-tb;direction:ltr;text-orientation:mixed;dominant-baseline:auto;baseline-shift:baseline;text-anchor:start;white-space:normal;shape-padding:0;clip-rule:nonzero;display:inline;overflow:visible;visibility:visible;opacity:1;isolation:auto;mix-blend-mode:normal;color-interpolation:sRGB;color-interpolation-filters:linearRGB;solid-color:#000000;solid-opacity:1;vector-effect:none;fill:#00ff00;fill-opacity:1;fill-rule:evenodd;stroke:none;stroke-width:0.26458332;stroke-linecap:butt;stroke-linejoin:miter;stroke-miterlimit:4;stroke-dasharray:0.52916663, 0.52916663;stroke-dashoffset:0;stroke-opacity:1;color-rendering:auto;image-rendering:auto;shape-rendering:auto;text-rendering:auto;enable-background:accumulate"
             d="m 163.89453,276.1543 0.5293,0.006 0.002,-0.26368 -0.5293,-0.006 z m -1.06445,-0.22461 0.0176,0.26367 0.52734,-0.0352 -0.0176,-0.26367 z m 2.11328,0.25 0.52734,0.041 0.0195,-0.26367 -0.52734,-0.041 z m -3.17578,-0.12891 0.041,0.26172 0.52344,-0.082 -0.041,-0.25977 z m 4.23047,0.21094 0.11328,0.01 0.40429,0.0547 0.0352,-0.26172 -0.41016,-0.0566 h -0.004 -0.004 l -0.11328,-0.01 z m 1.04101,0.13672 0.52539,0.0703 0.0352,-0.26172 -0.52344,-0.0723 z m -6.31836,-0.12891 0.0645,0.25586 0.51367,-0.12891 -0.0645,-0.25586 z m 7.35742,0.29102 0.52149,0.0977 0.0488,-0.25976 -0.52149,-0.0977 z m -8.375,0.0371 0.0879,0.25 0.5,-0.17774 -0.0899,-0.25 z m 9.41602,0.1582 0.25,0.0469 0.0488,-0.25976 -0.25,-0.0469 z m -10.2832,0.23242 -0.006,0.002 -0.006,0.004 -0.10156,0.0586 0.13281,0.23047 0.0918,-0.0547 0.01,-0.006 0.36133,-0.16797 -0.11133,-0.24024 z m -0.69141,0.39844 -0.004,0.002 -0.004,0.004 -0.32422,0.2207 0.15039,0.21875 0.31445,-0.21484 0.008,-0.006 0.11132,-0.0645 -0.13281,-0.22852 z m -1.1875,0.86133 0.16211,0.20898 0.41797,-0.32422 -0.16211,-0.20898 z m -0.80859,0.69336 0.17187,0.19921 0.40039,-0.3457 -0.17187,-0.19922 z m -0.80274,0.6914 0.17383,0.19922 0.40039,-0.3457 -0.17187,-0.19922 z m -0.80078,0.69141 0.17383,0.19922 0.40039,-0.34571 -0.17383,-0.19921 z"
             id="path4558"
             inkscape:connector-curvature="0" />
          <path
             style="fill:#00ff00;fill-opacity:1;fill-rule:evenodd;stroke:none;stroke-width:0.05291666pt;stroke-opacity:1"
             d="m 169.18863,276.35945 -0.10883,0.51785 0.51785,0.10883 0.10883,-0.51785 z"
             id="path7664"
             inkscape:connector-curvature="0" />
        </g>
        <ellipse
           style="opacity:0.66300001;fill:none;fill-opacity:1;stroke:#ffffff;stroke-width:0.3982909;stroke-linecap:butt;stroke-linejoin:round;stroke-miterlimit:4;stroke-dasharray:0.39829089, 1.19487266;stroke-dashoffset:0;stroke-opacity:1"
           id="path4536"
           cx="168.69994"
           cy="303.59961"
           rx="36.985806"
           ry="16.303267"
           transform="matrix(0.97802038,-0.20850933,0,1,0,0)" />
        <ellipse
           ry="11.717973"
           rx="27.313242"
           cy="236.44638"
           cx="168.06226"
           id="ellipse4540"
           style="opacity:0.66300001;fill:none;fill-opacity:1;stroke:#ffffff;stroke-width:0.39753741;stroke-linecap:butt;stroke-linejoin:round;stroke-miterlimit:4;stroke-dasharray:0.39753743, 1.19261228;stroke-dashoffset:0;stroke-opacity:1"
           transform="matrix(0.98173121,0.19027304,0,1,0,0)" />
        <ellipse
           ry="7.5603657"
           rx="17.433979"
           cy="256.54111"
           cx="165.41934"
           id="ellipse4544"
           style="opacity:0.66300001;fill:none;fill-opacity:1;stroke:#ffffff;stroke-width:0.39439923;stroke-linecap:butt;stroke-linejoin:round;stroke-miterlimit:4;stroke-dasharray:0.39439922, 1.18319767;stroke-dashoffset:0;stroke-opacity:1"
           transform="matrix(0.99741648,0.07183563,0,1,0,0)" />
        <circle
           style="opacity:1;fill:#ffff00;fill-opacity:1;stroke:none;stroke-width:0.3938894;stroke-linecap:round;stroke-linejoin:round;stroke-miterlimit:4;stroke-dasharray:none;stroke-dashoffset:0;stroke-opacity:1"
           id="path4548"
           cx="164.99199"
           cy="268.4241"
           r="2.1615281" />
        <circle
           cy="270.67572"
           cx="182.01401"
           id="circle4550"
           style="opacity:1;fill:#e6e6e6;fill-opacity:1;stroke:none;stroke-width:0.3938894;stroke-linecap:round;stroke-linejoin:round;stroke-miterlimit:4;stroke-dasharray:none;stroke-dashoffset:0;stroke-opacity:1"
           r="1.1708277" />
        <g
           id="g7644"
           style="fill:#00ff00;stroke:none"
           transform="matrix(1.4887159,0,0,1.4887159,-93.822362,-132.9663)">
          <path
             style="color:#000000;font-style:normal;font-variant:normal;font-weight:normal;font-stretch:normal;font-size:medium;line-height:normal;font-family:sans-serif;font-variant-ligatures:normal;font-variant-position:normal;font-variant-caps:normal;font-variant-numeric:normal;font-variant-alternates:normal;font-feature-settings:normal;text-indent:0;text-align:start;text-decoration:none;text-decoration-line:none;text-decoration-style:solid;text-decoration-color:#000000;letter-spacing:normal;word-spacing:normal;text-transform:none;writing-mode:lr-tb;direction:ltr;text-orientation:mixed;dominant-baseline:auto;baseline-shift:baseline;text-anchor:start;white-space:normal;shape-padding:0;clip-rule:nonzero;display:inline;overflow:visible;visibility:visible;opacity:1;isolation:auto;mix-blend-mode:normal;color-interpolation:sRGB;color-interpolation-filters:linearRGB;solid-color:#000000;solid-opacity:1;vector-effect:none;fill:#00ff00;fill-opacity:1;fill-rule:evenodd;stroke:none;stroke-width:0.26458332;stroke-linecap:butt;stroke-linejoin:miter;stroke-miterlimit:4;stroke-dasharray:0.52916663, 0.52916663;stroke-dashoffset:0;stroke-opacity:1;color-rendering:auto;image-rendering:auto;shape-rendering:auto;text-rendering:auto;enable-background:accumulate"
             d="m 168.20312,266.01758 0.0156,0.26367 0.40039,-0.0215 h 0.008 0.11328 v -0.26368 h -0.12109 -0.002 -0.004 z m 1.06446,0.24414 h 0.5293 l 0.002,-0.26367 -0.5293,-0.002 z m 1.05078,0.0234 0.5293,0.0312 0.0137,-0.26368 -0.52735,-0.0312 z m -2.97461,-0.22071 h -0.004 -0.002 l -0.19727,0.0215 0.0293,0.26367 0.18946,-0.0215 h 0.006 l 0.32422,-0.0176 -0.0137,-0.26563 z m 4.02344,0.29102 0.52539,0.0586 0.0312,-0.26172 -0.52735,-0.0605 z m -5.27149,-0.1543 h -0.004 l -0.004,0.002 h -0.006 l 0.043,0.26172 0.008,-0.002 0.51172,-0.0566 -0.0293,-0.26172 z m 6.32227,0.27344 0.0957,0.01 0.008,0.002 0.41211,0.0703 0.0449,-0.26172 -0.41993,-0.0703 -0.004,-0.002 h -0.004 l -0.10156,-0.0117 z m -7.38086,-0.0957 0.0449,0.26171 0.52149,-0.0879 -0.0449,-0.26171 z m 8.41797,0.26562 0.37695,0.0645 0.006,0.002 0.13086,0.0293 0.0586,-0.25781 -0.13672,-0.0312 h -0.004 l -0.004,-0.002 -0.38281,-0.0645 z m -9.45899,-0.0371 0.0586,0.25781 0.51758,-0.11718 -0.0606,-0.25977 z m 10.48829,0.25196 0.51562,0.11718 0.0586,-0.25781 -0.51562,-0.11719 z m -11.51563,0.0293 0.0742,0.25391 0.50781,-0.14844 -0.0742,-0.25391 z m 12.53516,0.22461 0.50781,0.14844 0.0742,-0.25391 -0.50977,-0.14843 z m -13.54688,0.11133 0.0898,0.25 0.49804,-0.17969 -0.0898,-0.25 z m 14.55469,0.18555 0.49805,0.17773 0.0879,-0.25 -0.49805,-0.17773 z m -15.54492,0.21093 0.10547,0.24219 0.48437,-0.21289 -0.10547,-0.24219 z m 16.54101,0.14258 0.26758,0.0957 0.008,0.002 0.21094,0.0898 0.10352,-0.24219 -0.21875,-0.0937 -0.004,-0.002 h -0.004 l -0.27343,-0.0977 z m -17.08008,0.0918 -0.006,0.002 -0.004,0.002 -0.41602,0.21679 0.12305,0.23438 0.4082,-0.21289 h 0.002 l 0.006,-0.004 0.0469,-0.0195 -0.10547,-0.24219 z m 18.05469,0.30273 0.48633,0.20703 0.10352,-0.24414 -0.48829,-0.20703 z m -19.03906,0.20899 -0.004,0.002 -0.004,0.002 -0.36524,0.22461 0.13867,0.22461 0.35547,-0.21875 h 0.002 l 0.008,-0.006 0.0801,-0.041 -0.1211,-0.23438 z m 19.99414,0.22265 0.47461,0.23633 0.11719,-0.23633 -0.47266,-0.23632 z m 0.93945,0.47071 0.45899,0.26367 0.13281,-0.22852 -0.45898,-0.26562 z m -21.85547,-0.12696 -0.004,0.002 -0.004,0.004 -0.33594,0.24219 0.1543,0.21484 0.32813,-0.23828 0.008,-0.006 0.0898,-0.0547 -0.13867,-0.22461 z m 22.77344,0.6543 0.3125,0.18164 0.13281,-0.22851 -0.31445,-0.18164 z m -23.6289,-0.0352 -0.004,0.004 -0.004,0.002 -0.32422,0.2793 0.17188,0.20117 0.31641,-0.27148 0.082,-0.0606 -0.1543,-0.21484 z m -0.78321,0.67188 -0.004,0.004 -0.004,0.004 -0.32422,0.33203 0.18945,0.18555 0.31641,-0.32422 0.002,-0.002 0.006,-0.006 0.041,-0.0352 -0.17188,-0.20117 z m -0.70508,0.72266 -0.004,0.004 -0.004,0.004 -0.33008,0.4082 0.20508,0.16602 0.32227,-0.39844 0.002,-0.002 0.006,-0.006 -0.0644,-0.0527 -0.12891,-0.12695 z m -0.96289,1.28515 0.22071,0.14453 0.29101,-0.4414 -0.22265,-0.14649 z m -0.52539,0.9336 0.23633,0.12109 0.24219,-0.4707 -0.23633,-0.1211 z m -0.4082,0.99023 0.24609,0.0937 0.18946,-0.49414 -0.24805,-0.0937 z m -0.2832,1.03516 0.25586,0.0644 0.13086,-0.51172 -0.25586,-0.0664 z m -0.14649,1.02539 v 0.008 0.008 l -0.002,0.0371 0.26562,0.004 v -0.0332 -0.002 l 0.0645,-0.47266 -0.26172,-0.0371 z m -0.0195,1.01562 v 0.008 0.008 l 0.01,0.0937 0.26367,-0.0254 -0.008,-0.0781 0.008,-0.43555 -0.26563,-0.004 z m 0.0606,0.63672 0.0391,0.41211 v 0.006 l 0.002,0.008 0.0234,0.11328 0.25977,-0.0547 -0.0234,-0.10938 v -0.004 l -0.0371,-0.39648 z m 0.17187,1.05664 0.0899,0.43164 0.002,0.008 0.002,0.006 0.0274,0.084 0.25195,-0.0801 -0.0234,-0.0703 v -0.004 l -0.004,-0.01 -0.0859,-0.41797 z m 0.28125,1.0332 0.16016,0.50391 0.25195,-0.0801 -0.16015,-0.5039 z"
             id="path5892"
             inkscape:connector-curvature="0" />
          <path
             style="fill:#00ff00;fill-opacity:1;fill-rule:evenodd;stroke:none;stroke-width:0.05291666pt;stroke-opacity:1"
             d="m 181.58841,269.29085 -0.27849,0.44995 0.44995,0.27849 0.27849,-0.44995 z"
             id="path7650"
             inkscape:connector-curvature="0" />
        </g>
        <g
           id="g7684"
           style="fill:#00ff00;stroke:none"
           transform="matrix(1.4887159,0,0,1.4887159,-93.822362,-132.9663)">
          <path
             style="color:#000000;font-style:normal;font-variant:normal;font-weight:normal;font-stretch:normal;font-size:medium;line-height:normal;font-family:sans-serif;font-variant-ligatures:normal;font-variant-position:normal;font-variant-caps:normal;font-variant-numeric:normal;font-variant-alternates:normal;font-feature-settings:normal;text-indent:0;text-align:start;text-decoration:none;text-decoration-line:none;text-decoration-style:solid;text-decoration-color:#000000;letter-spacing:normal;word-spacing:normal;text-transform:none;writing-mode:lr-tb;direction:ltr;text-orientation:mixed;dominant-baseline:auto;baseline-shift:baseline;text-anchor:start;white-space:normal;shape-padding:0;clip-rule:nonzero;display:inline;overflow:visible;visibility:visible;opacity:1;isolation:auto;mix-blend-mode:normal;color-interpolation:sRGB;color-interpolation-filters:linearRGB;solid-color:#000000;solid-opacity:1;vector-effect:none;fill:#00ff00;fill-opacity:1;fill-rule:evenodd;stroke:none;stroke-width:0.26458332;stroke-linecap:butt;stroke-linejoin:miter;stroke-miterlimit:4;stroke-dasharray:0.52916663, 0.52916663;stroke-dashoffset:0;stroke-opacity:1;color-rendering:auto;image-rendering:auto;shape-rendering:auto;text-rendering:auto;enable-background:accumulate"
             d="m 166.90234,279.31641 0.0781,0.25195 0.15234,-0.0469 -0.0781,-0.25195 z m -9.93359,0.0156 -0.4668,0.0527 0.0293,0.26367 0.46289,-0.0527 h 0.004 l 0.041,0.002 0.008,-0.26563 h -0.0605 l -0.01,-0.002 z m 0.58594,0.2793 0.52343,0.0703 0.0352,-0.26367 -0.52539,-0.0684 z m 8.33593,0.0195 0.0801,0.25391 0.50391,-0.15821 -0.0781,-0.25195 z m -10.0996,-0.0605 -0.0117,0.004 -0.01,0.006 -0.30859,0.15234 0.11718,0.23828 0.28711,-0.14453 0.006,-0.002 0.16993,-0.0508 -0.0742,-0.25391 z m 2.79687,0.21094 0.51953,0.10742 0.0527,-0.25976 -0.51758,-0.10743 z m 1.03906,0.21094 0.52149,0.0976 0.0488,-0.25976 -0.51954,-0.0977 z m 5.24414,-0.125 0.0566,0.25781 0.51758,-0.11523 -0.0586,-0.25782 z m -4.20312,0.32226 0.23047,0.043 0.006,0.002 h 0.004 l 0.29297,0.0332 0.0293,-0.26367 -0.2832,-0.0312 -0.01,-0.002 -0.2207,-0.041 z m 3.16797,-0.16601 0.0352,0.26172 0.52539,-0.0684 -0.0351,-0.26172 z m -9.28125,0.29297 0.15429,0.21484 0.42969,-0.30664 -0.15234,-0.2168 z m 7.1914,-0.16602 -0.0195,0.17578 h 0.002 0.006 l 0.004,0.002 0.52734,0.0195 0.01,-0.26368 -0.51953,-0.0215 h -0.006 z m 1.04688,-0.0606 0.0117,0.26563 0.52929,-0.0234 -0.0117,-0.26367 z"
             id="path4860"
             inkscape:connector-curvature="0" />
          <path
             id="path7690"
             d="m 166.75631,279.23451 0.17725,0.49859 0.49859,-0.17725 -0.17725,-0.49859 z"
             style="fill:#00ff00;fill-opacity:1;fill-rule:evenodd;stroke:none;stroke-width:0.05291666pt;stroke-opacity:1"
             inkscape:connector-curvature="0" />
        </g>
        <circle
           style="opacity:1;fill:#d7eef4;fill-opacity:1;stroke:none;stroke-width:0.3938894;stroke-linecap:round;stroke-linejoin:round;stroke-miterlimit:4;stroke-dasharray:none;stroke-dashoffset:0;stroke-opacity:1"
           id="circle4552"
           cx="136.53188"
           cy="284.45547"
           r="1.6211462" />
        <circle
           cy="279.23178"
           cx="160.84904"
           id="circle4556"
           style="opacity:1;fill:#e9c6af;fill-opacity:1;stroke:none;stroke-width:0.3938894;stroke-linecap:round;stroke-linejoin:round;stroke-miterlimit:4;stroke-dasharray:none;stroke-dashoffset:0;stroke-opacity:1"
           r="1.0807642" />
      </g>
    </g>
  </g>
</svg>
